<svg width="57" height="59" viewBox="0 0 57 59" fill="none" xmlns="http://www.w3.org/2000/svg">
<g clip-path="url(#clip0)">
<path d="M17.7704 11.78H7.04468V59.5243H17.7704V11.78Z" fill="#F27322"/>
<path d="M34.0181 11.78H23.2933V59.5243H34.0181V11.78Z" fill="#D53635"/>
<path d="M42.2901 38.4339H-1.22644V49.2001H42.2901V38.4339Z" fill="#ED748A"/>
<path d="M17.7702 38.4339H7.04443V49.2001H17.7702V38.4339Z" fill="#EB4125"/>
<path d="M34.0185 38.4339H23.2937V49.2001H34.0185V38.4339Z" fill="#D22730"/>
<path d="M42.2901 22.1045H-1.22644V32.8707H42.2901V22.1045Z" fill="#F2AF8D"/>
<path d="M17.7702 22.1045H7.04443V32.8707H17.7702V22.1045Z" fill="#EB5B24"/>
<path d="M34.0185 22.1045H23.2937V32.8707H34.0185V22.1045Z" fill="#D22F2F"/>
</g>
<path d="M56.8532 36.711L44.9565 44.9661L45.0575 28.3122L56.8532 36.711Z" fill="black"/>
<defs>
<clipPath id="clip0">
<rect width="41.2086" height="58.3788" fill="white"/>
</clipPath>
</defs>
</svg>
