<svg width="31" height="31" viewBox="0 0 31 31" fill="none" xmlns="http://www.w3.org/2000/svg">
<path d="M15.0966 17.923C16.5783 17.923 17.7795 16.7218 17.7795 15.2401C17.7795 13.7583 16.5783 12.5571 15.0966 12.5571C13.6149 12.5571 12.4137 13.7583 12.4137 15.2401C12.4137 16.7218 13.6149 17.923 15.0966 17.923Z" fill="white"/>
<path d="M18.4502 8.65479H11.743C10.7674 8.65479 9.91377 8.95966 9.365 9.50844C8.81623 10.0572 8.51135 10.9109 8.51135 11.8865V18.5938C8.51135 19.5694 8.81623 20.4231 9.42597 21.0328C10.0357 21.581 10.8284 21.8859 11.804 21.8859H18.4502C19.4258 21.8859 20.2795 21.581 20.8283 21.0328C21.438 20.4841 21.7429 19.6298 21.7429 18.6548V11.9475C21.7429 10.9719 21.438 10.1792 20.8892 9.56942C20.2795 8.95966 19.4862 8.65479 18.4502 8.65479ZM15.0966 19.3859C12.7796 19.3859 10.9503 17.4956 10.9503 15.2401C10.9503 12.9231 12.8406 11.0938 15.0966 11.0938C17.3521 11.0938 19.3039 12.9231 19.3039 15.2401C19.3039 17.5566 17.4137 19.3859 15.0966 19.3859ZM19.4258 11.8865C18.8771 11.8865 18.4502 11.4597 18.4502 10.9109C18.4502 10.3621 18.8765 9.93527 19.4258 9.93527C19.9752 9.93527 20.4014 10.3621 20.4014 10.9109C20.4014 11.4597 19.9746 11.8865 19.4258 11.8865Z" fill="white"/>
<path d="M15.2185 0.118164C6.92597 0.118164 0.21875 6.82548 0.21875 15.1176C0.21875 23.4108 6.92597 30.1182 15.2185 30.1182C23.5111 30.1182 30.2183 23.4108 30.2183 15.1176C30.2793 6.82548 23.5111 0.118164 15.2185 0.118164ZM23.2062 18.6547C23.2062 20.0572 22.7184 21.2767 21.8648 22.1297C21.0111 22.9834 19.7917 23.4108 18.4502 23.4108H11.804C10.4625 23.4108 9.24302 22.984 8.38937 22.1297C7.47475 21.2767 7.04792 20.0572 7.04792 18.6547V11.9474C7.04792 9.14256 8.93814 7.19133 11.804 7.19133H18.5112C19.9142 7.19133 21.0721 7.67914 21.9258 8.5328C22.7794 9.38646 23.2069 10.545 23.2069 11.9474V18.6547H23.2062Z" fill="white"/>
</svg>
