<svg width="30" height="30" viewBox="0 0 30 30" fill="none" xmlns="http://www.w3.org/2000/svg">
<path fill-rule="evenodd" clip-rule="evenodd" d="M15 30C23.2843 30 30 23.2843 30 15C30 6.71573 23.2843 0 15 0C6.71573 0 0 6.71573 0 15C0 23.2843 6.71573 30 15 30ZM22.8346 11.2949C22.8346 11.1283 22.8346 10.9618 22.8227 10.7952C23.5722 10.2479 24.2266 9.56979 24.75 8.80839C24.06 9.10579 23.3105 9.31999 22.5371 9.40323C23.3342 8.92738 23.941 8.17785 24.2265 7.28554C23.4889 7.72572 22.6561 8.04696 21.7876 8.21352C21.0856 7.46399 20.0863 7 18.9798 7C16.8503 7 15.137 8.72508 15.137 10.8428C15.137 11.1403 15.1727 11.4377 15.2322 11.7232C12.0438 11.5566 9.20033 10.0338 7.30866 7.70192C6.97552 8.27299 6.7852 8.92734 6.7852 9.64116C6.7852 10.9737 7.46331 12.1515 8.49837 12.8415C7.86787 12.8178 7.27295 12.6393 6.76139 12.3538V12.4013C6.76139 14.2692 8.08203 15.8158 9.84281 16.1728C9.52161 16.256 9.17656 16.3036 8.83155 16.3036C8.58169 16.3036 8.34376 16.2798 8.10579 16.2442C8.59359 17.767 10.0094 18.8734 11.6988 18.9092C10.3782 19.9442 8.72444 20.551 6.92798 20.551C6.60674 20.551 6.30934 20.5391 6 20.5034C7.70131 21.5979 9.72383 22.2285 11.901 22.2285C18.968 22.2285 22.8346 16.375 22.8346 11.2949Z" fill="white"/>
</svg>
